PathFileType	4	(X/Y/Z)	0_1_34_p1_0-240.trc
DataRate	CameraRate	NumFrames	NumMarkers	Units	OrigDataRate	OrigDataStartFrame	OrigNumFrames
60	60	6	27	m	60	180	240
Frame#	Time	RHip			RKnee			RAnkle			RBigToe			RSmallToe			RHeel			LHip			LKnee			LAnkle			LBigToe			LSmallToe			LHeel			Neck			Head			Nose			RShoulder			RElbow			RWrist			RThumb			RIndex			RPinky			LShoulder			LElbow			LWrist			LThumb			LIndex			LPinky		
		X1	Y1	Z1	X2	Y2	Z2	X3	Y3	Z3	X4	Y4	Z4	X5	Y5	Z5	X6	Y6	Z6	X7	Y7	Z7	X8	Y8	Z8	X9	Y9	Z9	X10	Y10	Z10	X11	Y11	Z11	X12	Y12	Z12	X13	Y13	Z13	X14	Y14	Z14	X15	Y15	Z15	X16	Y16	Z16	X17	Y17	Z17	X18	Y18	Z18	X19	Y19	Z19	X20	Y20	Z20	X21	Y21	Z21	X22	Y22	Z22	X23	Y23	Z23	X24	Y24	Z24	X25	Y25	Z25	X26	Y26	Z26	X27	Y27	Z27
181	3.0166666666666666	0.13574788582659336	0.2066820375428592	0.09189327834458676	0.14083382671454026	0.21656263819864038	-0.36891775220356243	0.16597887558220198	0.224004246349429	-0.7466322369032596	0.17888103698175753	0.07516968038090494	-0.792553797809186	0.09506319159291886	0.09214373667582752	-0.7888490640845566	0.1927392029969492	0.28773153648670363	-0.844140002307217	0.34070026060478026	0.19605833840396847	0.08951994094674322	0.35828805152052084	0.19397491498306837	-0.31691572627264414	0.35343159555099535	0.2733575042362108	-0.7755004941978194	0.3196228488943745	0.07019697392888494	-0.7860770360673639	0.3760429757001692	0.12649491249015246	-0.8006394862733119	0.34584719542943443	0.2987121714755515	-0.8534131928468868	0.21776131218900832	0.2792716965288696	0.5434172221160054	0.17929389334045043	0.22281675662660103	0.7992304795079125	0.18184462438952062	0.16628467324464904	0.6735027414983891	0.0627143710244905	0.2727890362373875	0.4734704477207487	0.020039958069693033	0.2051449762969321	0.22109301821457195	0.07676487035260945	0.0454728913569809	0.04729099147624161	0.14832394296879253	-0.09550191404605332	0.020056913126141256	0.13408122880012396	-0.08456878416033864	0.0003021991288964114	0.11630738956115112	-0.029914062359829397	-0.05050297718333411	0.36614973456211036	0.24487498824763856	0.49032396035547016	0.4310474784828929	0.1842235306308811	0.24464225312248253	0.3436934274040109	-0.01958742458940657	0.08004871986632127	0.2958773252963066	-0.05803920205094062	0.013607680686375995	0.2971203079075415	-0.0855372509509563	-0.001555388702984294	0.3360214755122299	-0.059293874904347926	-0.014668476878157232
182	3.033333333333333	0.13505728244281412	0.20649379990981598	0.08710964822778042	0.14255617352944885	0.2263938573768396	-0.3724753696538452	0.17027387132595903	0.22071019061641117	-0.744659343972134	0.17267088352239093	0.07302379691396607	-0.7850571339071609	0.09545940547402408	0.09268340442655916	-0.7895284991430851	0.19576177029991973	0.27462740914758005	-0.8347629181476368	0.34281890412320487	0.18578317553774068	0.09770533971149951	0.3501688934320654	0.2092877112067163	-0.3422994239307254	0.3534249898753023	0.2734504963401911	-0.7756307054864993	0.31267267441447816	0.0872659479406466	-0.7990718144894372	0.37608647164006537	0.1268379403770687	-0.8011392348282322	0.34979297280319993	0.2943055790161953	-0.8507100811717241	0.21776014929093865	0.27948725123035234	0.5434057109615693	0.17913942918739745	0.22303438231163694	0.799241186739041	0.18609348450344718	0.17795786874239686	0.6712296038572396	0.0625354505626462	0.27320210062066086	0.4735304143031367	0.020502392501749813	0.20400678047230333	0.2258553606468554	0.08614231749793196	0.011805706576143072	0.06596681176800107	0.15634561340367062	-0.10776925325818774	0.03356398418275247	0.1470323846145243	-0.11919403343678542	0.023710121120380834	0.1468634798561709	-0.06454694329670015	-0.009926144449566935	0.3644247386423407	0.2570270831886179	0.48746779229160153	0.42587592284660186	0.17093455957684364	0.2459944438036096	0.32370773582988005	-0.025121977770174785	0.09861407277019217	0.2700477305279767	-0.08791758648746566	0.05246233986104159	0.27671948210919073	-0.11513788944520337	0.02167355747955861	0.3182991369962165	-0.06400142040243621	-0.007128641895777857
183	3.05	0.1257729182458933	0.20801180724343823	0.06484855472776821	0.14026510947156248	0.2048905088226456	-0.37898371966082806	0.16926657481881036	0.2220781637866306	-0.7507111155977538	0.17339070272128432	0.07195330585424764	-0.7842124943430058	0.09683880418567402	0.09087929513919306	-0.7845849814333474	0.19566802890405535	0.2748137407735847	-0.8345099573911101	0.33975792947305483	0.19514965183672078	0.0812873033903136	0.34706183512165756	0.2114953975455999	-0.3504194313480967	0.3501257542011632	0.27464533606301905	-0.7816542618424378	0.3125771439634597	0.08715194138150033	-0.799126084096376	0.37705112448049777	0.1258359367982205	-0.805109224061999	0.34867470853361243	0.29585516117644384	-0.8557223044029428	0.21761511901019262	0.2795759572732889	0.5435448649863699	0.18330796608884295	0.2349792987839688	0.7976082988164213	0.18603152159289385	0.1794386207243631	0.6745193765947743	0.05842219494368203	0.2747040147432727	0.4731720607248534	0.020330629665333364	0.20458487749935356	0.22945149919900476	0.09717781953809487	-0.0110158869179793	0.09526908404563211	0.1741689437409896	-0.11246770193999042	0.05114644479575134	0.1678077019601461	-0.12448099364665803	0.037390660315607706	0.15047798792829378	-0.0888659707357562	0.012938076486362816	0.36447515035232364	0.2572902385088606	0.4874223023048737	0.4269435383429412	0.15851956840454065	0.2575323183787169	0.31474203860793576	-0.032049788048361144	0.1215630737769421	0.24033557994536628	-0.06496934766927764	0.06577303257580065	0.26072246409831523	-0.12000111188685185	0.036607458170622095	0.294574124430598	-0.0929864965407136	0.01754631510601183
184	3.066666666666667	0.12689965360590472	0.20630970753511324	0.06582937366345638	0.145700601419728	0.21568640508239997	-0.3953950524879589	0.16633149675308934	0.2256323093935563	-0.7437167715580063	0.16972100901141884	0.08110103015800174	-0.795842890753557	0.09333268297138816	0.10177447501337286	-0.7922250607011748	0.19191439260816368	0.2789111964341937	-0.8323964181657073	0.3376838121802023	0.18668252898439522	0.06833920043376164	0.34970701951764094	0.19549815882572869	-0.37627534154767306	0.3499141338135827	0.2751481230175577	-0.7819007173609201	0.31014469351475654	0.08857477915449724	-0.8060474815469515	0.3772022909956703	0.12637939036495904	-0.8055893560211997	0.3366523493685683	0.29768995878374777	-0.8474004972488551	0.21768580864333864	0.28016457335114864	0.5472006178014068	0.18077097617485177	0.24723711429670844	0.7959141881621529	0.18605678420897967	0.179670549081373	0.674566419746031	0.06284138774469829	0.288483812888704	0.46974086595598613	0.020005740234438393	0.20400195209365282	0.2298247661209864	0.10876197011123323	-0.023014638273795716	0.10388005191321535	0.18338642898833568	-0.11856185205937504	0.08580531370076812	0.18257563159305007	-0.12406042090338532	0.051114632764000266	0.1751548946286671	-0.11230208578270505	0.03464513552606271	0.360340458624524	0.2586213497131475	0.4871634453703772	0.42196843450747884	0.14642398706518328	0.26302043029382344	0.30848171193489304	-0.026087823902739646	0.12353716276086402	0.22556808911426046	-0.05033657158851067	0.07606000000062958	0.2264226851973279	-0.06723719678850948	0.02878426461572945	0.24900970463691652	-0.05728389396081119	0.006330499533569431
185	3.0833333333333335	0.12782436700196084	0.20045260517775848	0.036648595703900375	0.14636183499084024	0.21365285793115918	-0.3925624725371952	0.1670985366361689	0.22443715536706385	-0.7382559378600811	0.16790464077197442	0.09031147260025885	-0.7987245961517494	0.09337662798076704	0.10167997125302272	-0.783019191796989	0.19275203355483428	0.2776505821099006	-0.8369841348339196	0.3424594228632002	0.181201920663671	0.04872253033311221	0.35240952479839166	0.1843067700908919	-0.36516337763700235	0.3472025662882572	0.2758432629259652	-0.7865916896901072	0.3109349646405552	0.09876789184873133	-0.8132049521806917	0.37739831462477874	0.12826190805587048	-0.8015702990363256	0.3373905140013233	0.28837218283230515	-0.8415912616203943	0.21764891232643832	0.28043875516209793	0.5472676714579545	0.17833554605548943	0.2594280678324949	0.7942327340498986	0.18235656009844853	0.18126889322677042	0.6777243557870588	0.06289158983147708	0.28860911524226224	0.46978907583387797	0.014958660680959548	0.17999811742838914	0.23896980703367338	0.12052806259768735	-0.02498042595620261	0.11226248541992505	0.20608270972134685	-0.09478697784404143	0.10076721860452534	0.2219888137893892	-0.10830824600100392	0.07848080196759705	0.19836773963946006	-0.10933202844858927	0.05047630540940073	0.36050250050307414	0.25960768924446914	0.4909617739790654	0.4164074893514352	0.13382984893713476	0.2679019069164166	0.3017944138626904	-0.02619123811412381	0.1390279633793482	0.20893657860948953	-0.05967641980350612	0.09322603120545117	0.19909593841285078	-0.08573122662789781	0.07345975067792013	0.2285230990668072	-0.04844590482419801	0.01126177366071929
186	3.1	0.12299999424834715	0.20503603512114857	0.03820679173259956	0.13621094881955442	0.22191363842999087	-0.3968919787634978	0.16618262524823485	0.22566279855834676	-0.7433142999295144	0.16786686545935015	0.09003278003036704	-0.7984475128606775	0.0924792049608606	0.10266571159138482	-0.7874924981795393	0.19313082320731	0.2788403930194651	-0.8335734453343204	0.3413182461698588	0.18321337921121653	0.0466933464299368	0.3617056394724499	0.19662195276825478	-0.37738016038012323	0.35127001920348727	0.27461266468142004	-0.7857548127257633	0.3133874055218034	0.08506933870929287	-0.8070193854884715	0.3769825462465381	0.1262162890176722	-0.804501427296363	0.33874930775002876	0.28896889603232706	-0.832823875063698	0.21732709108826104	0.28150296477577413	0.5507832339888117	0.17839431546182474	0.2595968231569388	0.7942571613101264	0.18221430252147922	0.18187759003490306	0.6743613819701002	0.06306145018830711	0.28979309066961745	0.4737173400119509	0.014120743952191409	0.18293581651916982	0.24844457753886848	0.12430213208892191	-0.020790590674875885	0.1338136631119592	0.22558302099652866	-0.052461869255541575	0.09338258739110054	0.23680995982802266	-0.05829892525516741	0.08024492848228276	0.19696044139895802	-0.09632628715003418	0.0652985057863276	0.36036561991884003	0.2594694211443191	0.4910793402177689	0.41523543542015084	0.12011048416185922	0.27295519581158423	0.2877103578858732	-0.04465159140162734	0.16592420778986527	0.200398975087197	-0.056635733030422075	0.10711451566087044	0.1921695578129048	-0.07196671685888448	0.08766267262519249	0.21996509372225231	-0.05039175830289381	0.057517516740499625
